<?xml version="1.0" encoding="utf-8"?>
<!-- Generator: Adobe Illustrator 18.1.1, SVG Export Plug-In . SVG Version: 6.00 Build 0)  -->
<svg version="1.1" id="Layer_1" xmlns="http://www.w3.org/2000/svg" xmlns:xlink="http://www.w3.org/1999/xlink" x="0px" y="0px"
	 viewBox="0 0 250 250" enable-background="new 0 0 250 250" xml:space="preserve">
<rect x="18.8" y="179.8" fill="none" width="284.2" height="121.4"/>
<text transform="matrix(1 0 0 1 18.7598 232.4248)" fill="#841C33" font-family="'CourierNewPSMT'" font-size="85.8088">wyno</text>
<circle fill="#9C3232" cx="97.1" cy="122.3" r="16"/>
<circle fill="#BD5661" cx="77.9" cy="89.4" r="16"/>
<circle fill="#AB3433" cx="116.2" cy="90.5" r="16"/>
<circle fill="#7C1D1D" cx="155.1" cy="90" r="16"/>
<circle fill="#9C3232" cx="136.6" cy="122.9" r="16"/>
<circle fill="#511C1C" cx="116.8" cy="154.4" r="16"/>
<circle fill="#9C3232" cx="97.8" cy="57.1" r="16"/>
<circle fill="#AB3433" cx="134.9" cy="57.7" r="16"/>
<path fill="#50823C" d="M109.7,40.4c0,0,0.3-19.4,13.2-30.3c12-10.1,30.7-7.3,30.7-7.3s-2.2,19-15.3,29.2
	C125.3,42.1,109.7,40.4,109.7,40.4z"/>
</svg>
