<?xml version="1.0" encoding="utf-8"?>
<!-- Generator: Adobe Illustrator 18.1.1, SVG Export Plug-In . SVG Version: 6.00 Build 0)  -->
<svg version="1.1" id="Capa_1" xmlns="http://www.w3.org/2000/svg" xmlns:xlink="http://www.w3.org/1999/xlink" x="0px" y="0px"
	 viewBox="0 404.5 750 525" enable-background="new 0 404.5 750 525" xml:space="preserve">
<g>
	<g>
		<g>
			<g>
				<path fill="#FFFFFF" d="M712.5,629.5h-675C16.8,629.5,0,646.3,0,667s16.8,37.5,37.5,37.5h675c20.6,0,37.5-16.8,37.5-37.5
					C750,646.3,733.1,629.5,712.5,629.5z"/>
				<path fill="#FFFFFF" d="M37.5,479.5h675c20.6,0,37.5-16.8,37.5-37.5c0-20.7-16.9-37.5-37.5-37.5h-675C16.8,404.5,0,421.3,0,442
					S16.8,479.5,37.5,479.5z"/>
				<path fill="#FFFFFF" d="M712.5,854.5h-675C16.8,854.5,0,871.4,0,892s16.8,37.5,37.5,37.5h675c20.6,0,37.5-16.9,37.5-37.5
					C750,871.4,733.1,854.5,712.5,854.5z"/>
			</g>
		</g>
	</g>
</g>
</svg>
