<?xml version="1.0" encoding="utf-8"?>
<!-- Generator: Adobe Illustrator 18.1.1, SVG Export Plug-In . SVG Version: 6.00 Build 0)  -->
<svg version="1.1" id="Layer_1" xmlns="http://www.w3.org/2000/svg" xmlns:xlink="http://www.w3.org/1999/xlink" x="0px" y="0px"
	 viewBox="0 0 120 120" enable-background="new 0 0 120 120" xml:space="preserve">
<g>
	<rect x="-0.3" y="8.2" fill="none" width="88.1" height="26.3"/>
	<text transform="matrix(1 0 0 1 -0.2693 28.4786)" opacity="0.29" fill="#1E1E1E" font-family="'CourierNewPSMT'" font-size="33">wyno</text>
	<rect x="78.4" y="8.2" fill="none" width="88.1" height="26.3"/>
	<text transform="matrix(1 0 0 1 78.4133 28.4787)" opacity="0.29" fill="#1E1E1E" font-family="'CourierNewPSMT'" font-size="33">wyno</text>
	<rect x="-40.3" y="31.3" fill="none" width="88.1" height="26.3"/>
	<text transform="matrix(1 0 0 1 -40.3052 51.5031)" opacity="0.29" fill="#1E1E1E" font-family="'CourierNewPSMT'" font-size="33">wyno</text>
	<rect x="38.4" y="31.3" fill="none" width="88.1" height="26.3"/>
	<text transform="matrix(1 0 0 1 38.3774 51.5031)" opacity="0.29" fill="#1E1E1E" font-family="'CourierNewPSMT'" font-size="33">wyno</text>
	<rect x="-1" y="54.8" fill="none" width="88.1" height="26.3"/>
	<text transform="matrix(1 0 0 1 -0.9639 75.0209)" opacity="0.29" fill="#1E1E1E" font-family="'CourierNewPSMT'" font-size="33">wyno</text>
	<rect x="77.7" y="54.8" fill="none" width="88.1" height="26.3"/>
	<text transform="matrix(1 0 0 1 77.7187 75.0209)" opacity="0.29" fill="#1E1E1E" font-family="'CourierNewPSMT'" font-size="33">wyno</text>
	<rect x="-40.3" y="78.9" fill="none" width="88.1" height="26.3"/>
	<text transform="matrix(1 0 0 1 -40.3052 99.1453)" opacity="0.29" fill="#1E1E1E" font-family="'CourierNewPSMT'" font-size="33">wyno</text>
	<rect x="38.4" y="78.9" fill="none" width="88.1" height="26.3"/>
	<text transform="matrix(1 0 0 1 38.3774 99.1453)" opacity="0.29" fill="#1E1E1E" font-family="'CourierNewPSMT'" font-size="33">wyno</text>
	<rect x="-0.3" y="103.8" fill="none" width="88.1" height="26.3"/>
	<text transform="matrix(1 0 0 1 -0.2693 124.0675)" opacity="0.29" fill="#1E1E1E" font-family="'CourierNewPSMT'" font-size="33">wyno</text>
	<rect x="78.4" y="103.8" fill="none" width="88.1" height="26.3"/>
	<text transform="matrix(1 0 0 1 78.4133 124.0675)" opacity="0.29" fill="#1E1E1E" font-family="'CourierNewPSMT'" font-size="33">wyno</text>
	<rect x="-39.6" y="-14.8" fill="none" width="88.1" height="26.3"/>
	<text transform="matrix(1 0 0 1 -39.6472 5.4787)" opacity="0.29" fill="#1E1E1E" font-family="'CourierNewPSMT'" font-size="33">wyno</text>
	<rect x="39" y="-14.8" fill="none" width="88.1" height="26.3"/>
	<text transform="matrix(1 0 0 1 39.0355 5.4787)" opacity="0.29" fill="#1E1E1E" font-family="'CourierNewPSMT'" font-size="33">wyno</text>
</g>
<circle fill="#9B3231" cx="46" cy="81.7" r="9.7"/>
<circle fill="#BC5560" cx="34.4" cy="61.8" r="9.7"/>
<circle fill="#AB3333" cx="57.6" cy="62.5" r="9.7"/>
<circle fill="#7C1C1D" cx="81.1" cy="62.2" r="9.7"/>
<circle fill="#9B3231" cx="69.9" cy="82" r="9.7"/>
<circle fill="#511B1B" cx="57.9" cy="101.1" r="9.7"/>
<circle fill="#9B3231" cx="46.4" cy="42.3" r="9.7"/>
<circle fill="#AB3333" cx="68.8" cy="42.7" r="9.7"/>
<path fill="#4F833C" d="M53.6,32.2c0,0,0.2-11.7,8-18.3c7.2-6.1,18.5-4.4,18.5-4.4s-1.4,11.5-9.2,17.6S53.6,32.2,53.6,32.2z"/>
</svg>
