<?xml version="1.0" encoding="utf-8"?>
<!-- Generator: Adobe Illustrator 18.1.1, SVG Export Plug-In . SVG Version: 6.00 Build 0)  -->
<svg version="1.1" id="Layer_1" xmlns="http://www.w3.org/2000/svg" xmlns:xlink="http://www.w3.org/1999/xlink" x="0px" y="0px"
	 viewBox="225 0 150 150" enable-background="new 225 0 150 150" xml:space="preserve">
<rect x="225" fill="#A31F22" width="150" height="150"/>
<circle fill="none" stroke="#FFFFFF" stroke-width="4" stroke-miterlimit="10" cx="300.5" cy="75" r="58.2"/>
<rect x="255.6" y="68.4" fill="none" width="110.9" height="45.6"/>
<g enable-background="new    ">
	<path fill="#FFFFFF" d="M256,79.3c0.3,0.1,0.7,0.2,1.1,0.3c0.3,0.1,0.7,0.1,1.1,0.2c0.4,0,0.8,0.1,1.2,0.1c0.7,0,1.1-0.3,1.1-0.8
		c0-0.2-0.1-0.4-0.3-0.6c-0.2-0.2-0.5-0.5-0.8-0.7c-0.3-0.3-0.7-0.6-1.1-0.9c-0.4-0.3-0.8-0.7-1.1-1.1c-0.3-0.4-0.6-0.9-0.8-1.4
		c-0.2-0.5-0.3-1.1-0.3-1.8c0-0.7,0.1-1.4,0.4-2c0.3-0.6,0.6-1,1.1-1.4c0.5-0.4,1-0.7,1.7-0.9c0.6-0.2,1.3-0.3,2.1-0.3
		c0.4,0,0.8,0,1.1,0.1c0.4,0,0.7,0.1,1,0.1c0.3,0,0.7,0.1,1,0.1v4.4c-0.1,0-0.3,0-0.4,0c-0.1,0-0.3,0-0.4,0c-0.2,0-0.3,0-0.5,0
		c-0.1,0-0.2,0-0.4,0c-0.1,0-0.3,0-0.4,0.1c-0.1,0-0.2,0.1-0.3,0.2c-0.1,0.1-0.1,0.2-0.1,0.3c0,0.1,0.1,0.3,0.3,0.5
		c0.2,0.2,0.5,0.4,0.8,0.7c0.3,0.3,0.6,0.5,1,0.9c0.4,0.3,0.7,0.7,1,1.1c0.3,0.4,0.6,0.9,0.8,1.5c0.2,0.5,0.3,1.1,0.3,1.8
		c0,0.7-0.1,1.4-0.3,2s-0.6,1.1-1,1.6s-1.1,0.8-1.8,1.1c-0.7,0.3-1.6,0.4-2.6,0.4c-0.6,0-1.2,0-1.7-0.1c-0.5-0.1-1-0.1-1.4-0.2
		c-0.5-0.1-0.9-0.2-1.3-0.3V79.3z M258,82.2c0.2,0,0.5,0.1,0.7,0.1c0.2,0,0.5,0.1,0.7,0.1c0.2,0,0.5,0,0.7,0c0.4,0,0.9-0.1,1.3-0.2
		c0.4-0.1,0.8-0.3,1.1-0.5c0.3-0.2,0.6-0.5,0.8-0.9c0.2-0.4,0.3-0.8,0.3-1.4c0-0.5-0.1-0.9-0.3-1.3c-0.2-0.4-0.5-0.8-0.9-1.2
		c-0.4-0.4-0.7-0.7-1.1-1.1c-0.4-0.3-0.8-0.7-1.1-1.1c-0.4-0.4-0.7-0.7-0.9-1.1c-0.2-0.4-0.3-0.7-0.3-1.1c0-0.6,0.2-1,0.5-1.3
		c0.4-0.3,1-0.5,1.8-0.5c0.1,0,0.3,0,0.4,0c0.1,0,0.3,0,0.4,0c0.1,0,0.3,0,0.4,0v-0.6c-0.1,0-0.2,0-0.4,0c-0.1,0-0.2,0-0.4,0
		c-0.1,0-0.3,0-0.4,0c-0.9,0-1.6,0.2-2.1,0.6s-0.8,1-0.8,1.8c0,0.4,0.1,0.9,0.3,1.2s0.5,0.8,0.9,1.1c0.4,0.4,0.7,0.7,1.1,1.1
		s0.8,0.7,1.1,1.1c0.4,0.4,0.7,0.7,0.9,1.1c0.2,0.4,0.3,0.8,0.3,1.2c0,0.8-0.3,1.3-0.8,1.7c-0.5,0.4-1.2,0.6-2.1,0.6
		c-0.5,0-1,0-1.5-0.1c-0.2,0-0.5-0.1-0.7-0.1V82.2z"/>
	<path fill="#FFFFFF" d="M279.5,74.4c0,1.1-0.2,2-0.6,2.8c-0.4,0.8-0.9,1.4-1.6,1.9c-0.7,0.5-1.4,0.8-2.3,1
		c-0.9,0.2-1.8,0.3-2.8,0.3v3.8h-5.1V68.4h5.1c1,0,2,0.1,2.8,0.3s1.6,0.6,2.3,1c0.7,0.5,1.2,1.1,1.6,1.9
		C279.3,72.4,279.5,73.3,279.5,74.4z M277.2,74.4c0-0.7-0.1-1.3-0.4-1.9c-0.2-0.5-0.6-1-1-1.3c-0.4-0.3-1-0.6-1.6-0.7
		c-0.6-0.2-1.3-0.2-2-0.2h-2.7v12.1h0.6v-3.8h2.1c0.7,0,1.4-0.1,2-0.2c0.6-0.2,1.1-0.4,1.6-0.7c0.4-0.3,0.8-0.8,1-1.3
		C277.1,75.8,277.2,75.1,277.2,74.4z M276.5,74.4c0,0.7-0.1,1.3-0.4,1.7s-0.6,0.8-1,1.1c-0.4,0.3-0.9,0.5-1.4,0.6
		c-0.5,0.1-1.1,0.2-1.6,0.2h-2.1v-7.1h2.1c0.6,0,1.1,0.1,1.6,0.2c0.5,0.1,1,0.3,1.4,0.6c0.4,0.3,0.7,0.6,1,1.1
		S276.5,73.7,276.5,74.4z M272.2,76.2h0.2c0.7,0,1.1-0.2,1.4-0.5c0.3-0.3,0.4-0.7,0.4-1.3s-0.1-1-0.4-1.3c-0.3-0.3-0.8-0.5-1.4-0.5
		h-0.2V76.2z"/>
	<path fill="#FFFFFF" d="M280.7,68.4h9.3v4.2h-4.3v1.8h4.2v3.9h-4.2v1.8h4.4v4.2h-9.5V68.4z M288.5,82.3v-0.6h-4.8v-5.2h4.5V76h-4.5
		v-5.1h4.8v-0.6h-5.4v12.1H288.5z"/>
	<path fill="#FFFFFF" d="M290.9,76.3c0-1.3,0.2-2.4,0.7-3.4c0.4-1,1-1.9,1.8-2.6c0.8-0.7,1.6-1.3,2.7-1.7s2.1-0.6,3.2-0.6
		c0.9,0,1.7,0.1,2.4,0.3c0.7,0.2,1.3,0.4,1.8,0.6c0.6,0.3,1.1,0.5,1.5,0.8l-2.5,4.4c-0.3-0.2-0.5-0.4-0.8-0.5
		c-0.3-0.1-0.6-0.2-1-0.4c-0.4-0.1-0.8-0.2-1.3-0.2c-0.5,0-0.9,0.1-1.4,0.3c-0.4,0.2-0.8,0.4-1.1,0.7c-0.3,0.3-0.6,0.7-0.7,1.1
		c-0.2,0.4-0.3,0.8-0.3,1.3s0.1,0.9,0.3,1.3c0.2,0.4,0.4,0.8,0.7,1.1c0.3,0.3,0.7,0.5,1.1,0.7c0.4,0.2,0.9,0.3,1.4,0.3
		c0.5,0,1-0.1,1.4-0.2c0.4-0.1,0.7-0.3,1-0.4c0.3-0.2,0.6-0.4,0.8-0.6l2.5,4.4c-0.4,0.3-0.9,0.7-1.5,0.9c-0.5,0.2-1.1,0.4-1.8,0.6
		c-0.7,0.2-1.5,0.3-2.4,0.3c-1.2,0-2.4-0.2-3.4-0.6c-1-0.4-2-1-2.7-1.7s-1.4-1.6-1.8-2.6C291.1,78.7,290.9,77.6,290.9,76.3z
		 M293.9,76.3c0-0.8,0.1-1.5,0.4-2.1s0.6-1.2,1.1-1.7c0.5-0.5,1.1-0.9,1.7-1.2c0.7-0.3,1.4-0.4,2.3-0.4c0.4,0,0.8,0,1.1,0.1
		c0.3,0.1,0.6,0.1,0.8,0.2c0.3,0.1,0.5,0.2,0.7,0.3l0.3-0.6c-0.3-0.1-0.5-0.2-0.8-0.3c-0.3-0.1-0.6-0.2-0.9-0.2
		c-0.3-0.1-0.8-0.1-1.2-0.1c-0.8,0-1.6,0.1-2.3,0.4c-0.7,0.3-1.4,0.7-2,1.2c-0.6,0.5-1,1.2-1.4,1.9c-0.3,0.8-0.5,1.6-0.5,2.5
		c0,0.9,0.2,1.8,0.5,2.5c0.3,0.7,0.8,1.4,1.3,1.9s1.2,0.9,2,1.2c0.8,0.3,1.6,0.4,2.4,0.4c0.5,0,0.9,0,1.3-0.1c0.4-0.1,0.7-0.2,1-0.3
		c0.3-0.1,0.6-0.2,0.8-0.4l-0.3-0.6c-0.2,0.1-0.4,0.3-0.7,0.4c-0.2,0.1-0.5,0.2-0.9,0.2c-0.3,0.1-0.7,0.1-1.2,0.1
		c-0.9,0-1.7-0.1-2.4-0.4c-0.7-0.3-1.3-0.7-1.8-1.2c-0.5-0.5-0.9-1.1-1.1-1.7S293.9,77.1,293.9,76.3z"/>
	<path fill="#FFFFFF" d="M305.9,68.4h5.4v15.9h-5.4V68.4z M308.9,82.3V70.3h-0.6v12.1H308.9z"/>
	<path fill="#FFFFFF" d="M317.7,68.4h3.8l6,15.9h-5l-0.5-1.4h-4.8l-0.5,1.4h-5L317.7,68.4z M315.2,82.3l0.5-1.2h7.9l0.5,1.2h0.7
		L320,70.3h-0.9l-4.6,12.1H315.2z M319.6,70.9l3.7,9.7h-7.4L319.6,70.9z M320.6,79.3l-1.1-2.8l-1.1,2.8H320.6z"/>
	<path fill="#FFFFFF" d="M327.8,68.4h5.3v11.7h4.4v4.2h-9.7V68.4z M336.2,82.3v-0.6h-5.3V70.3h-0.6v12.1H336.2z"/>
	<path fill="#FFFFFF" d="M338.4,79.3c0.3,0.1,0.7,0.2,1.1,0.3c0.3,0.1,0.7,0.1,1.1,0.2s0.8,0.1,1.2,0.1c0.7,0,1.1-0.3,1.1-0.8
		c0-0.2-0.1-0.4-0.3-0.6c-0.2-0.2-0.5-0.5-0.8-0.7c-0.3-0.3-0.7-0.6-1.1-0.9c-0.4-0.3-0.8-0.7-1.1-1.1s-0.6-0.9-0.8-1.4
		c-0.2-0.5-0.3-1.1-0.3-1.8c0-0.7,0.1-1.4,0.4-2c0.3-0.6,0.6-1,1.1-1.4c0.5-0.4,1-0.7,1.7-0.9c0.6-0.2,1.3-0.3,2.1-0.3
		c0.4,0,0.8,0,1.1,0.1c0.4,0,0.7,0.1,1,0.1c0.3,0,0.7,0.1,1,0.1v4.4c-0.1,0-0.3,0-0.4,0c-0.1,0-0.3,0-0.4,0c-0.2,0-0.3,0-0.5,0
		c-0.1,0-0.2,0-0.4,0c-0.1,0-0.3,0-0.4,0.1s-0.2,0.1-0.3,0.2c-0.1,0.1-0.1,0.2-0.1,0.3c0,0.1,0.1,0.3,0.3,0.5
		c0.2,0.2,0.5,0.4,0.8,0.7c0.3,0.3,0.7,0.5,1,0.9c0.4,0.3,0.7,0.7,1,1.1c0.3,0.4,0.6,0.9,0.8,1.5s0.3,1.1,0.3,1.8
		c0,0.7-0.1,1.4-0.3,2c-0.2,0.6-0.6,1.1-1,1.6s-1.1,0.8-1.8,1.1s-1.6,0.4-2.6,0.4c-0.6,0-1.2,0-1.7-0.1s-1-0.1-1.4-0.2
		c-0.5-0.1-0.9-0.2-1.3-0.3V79.3z M340.4,82.2c0.2,0,0.5,0.1,0.7,0.1c0.2,0,0.5,0.1,0.7,0.1c0.2,0,0.5,0,0.7,0
		c0.4,0,0.9-0.1,1.3-0.2c0.4-0.1,0.8-0.3,1.1-0.5c0.3-0.2,0.6-0.5,0.8-0.9c0.2-0.4,0.3-0.8,0.3-1.4c0-0.5-0.1-0.9-0.3-1.3
		c-0.2-0.4-0.5-0.8-0.9-1.2c-0.4-0.4-0.7-0.7-1.1-1.1s-0.8-0.7-1.1-1.1c-0.4-0.4-0.7-0.7-0.9-1.1c-0.2-0.4-0.3-0.7-0.3-1.1
		c0-0.6,0.2-1,0.5-1.3c0.4-0.3,1-0.5,1.8-0.5c0.1,0,0.3,0,0.4,0c0.1,0,0.3,0,0.4,0c0.1,0,0.3,0,0.4,0v-0.6c-0.1,0-0.2,0-0.4,0
		c-0.1,0-0.2,0-0.4,0c-0.1,0-0.3,0-0.4,0c-0.9,0-1.6,0.2-2.1,0.6c-0.6,0.4-0.8,1-0.8,1.8c0,0.4,0.1,0.9,0.3,1.2
		c0.2,0.4,0.5,0.8,0.9,1.1c0.4,0.4,0.7,0.7,1.1,1.1c0.4,0.3,0.8,0.7,1.1,1.1c0.4,0.4,0.6,0.7,0.9,1.1c0.2,0.4,0.3,0.8,0.3,1.2
		c0,0.8-0.3,1.3-0.8,1.7c-0.5,0.4-1.2,0.6-2.1,0.6c-0.5,0-1,0-1.5-0.1c-0.2,0-0.5-0.1-0.7-0.1V82.2z"/>
</g>
<line fill="none" stroke="#FFFFFF" stroke-width="4" stroke-miterlimit="10" x1="255.6" y1="59.4" x2="347" y2="59.4"/>
<line fill="none" stroke="#FFFFFF" stroke-width="4" stroke-miterlimit="10" x1="255.6" y1="91.2" x2="347" y2="91.2"/>
</svg>
