<?xml version="1.0" encoding="utf-8"?>
<!-- Generator: Adobe Illustrator 18.1.1, SVG Export Plug-In . SVG Version: 6.00 Build 0)  -->
<svg version="1.1" id="Layer_1" xmlns="http://www.w3.org/2000/svg" xmlns:xlink="http://www.w3.org/1999/xlink" x="0px" y="0px"
	 viewBox="0 0 150 44.3" enable-background="new 0 0 150 44.3" xml:space="preserve">
<path fill="#9A3434" d="M117.2,43.8H84.2c0,0-5-0.7-7.4-1.5C74.4,41.4,60,35.9,60,35.9l-5.3-2.1c0,0-2.1-0.7-3.6-1.2
	s-9.4-1.2-9.4-1.2L20,29.7c0,0-0.9,0.1-1.3,0.5c-0.4,0.4-0.4,0.4-0.4,0.4L4.2,29.7c0,0-3.9,0.3-3.9-6.9s3.3-7.6,3.3-7.6l14.3-1
	c0,0,0,0.6,0.5,0.9c0.5,0.3,1.6,0.2,1.6,0.2l30.8-2.8c0,0,22.5-8.8,27.5-10C83.4,1.2,86,1.1,86,1.1h59.5c0,0,1.2,0.1,2.5,1.7
	c1.3,1.6,1.5,3.8,1.6,6.8s0,25.7,0,25.7s-0.3,4.7-0.9,5.8s-0.9,1.5-1.9,2c-0.9,0.5-4.3,0.7-4.3,0.7H117.2z"/>
<g>
	<path fill="#F69799" d="M88.3,28.4c0-0.7,0.1-1.6,0.1-2.5V14.2h1.7v6.1h0c0.6-1.1,1.7-1.8,3.3-1.8c2.4,0,4.1,2,4.1,4.9
		c0,3.5-2.2,5.2-4.3,5.2c-1.4,0-2.5-0.5-3.2-1.8H90l-0.1,1.6H88.3z M90.2,24.5c0,0.2,0,0.4,0.1,0.6c0.3,1.2,1.4,2.1,2.6,2.1
		c1.8,0,2.9-1.5,2.9-3.7c0-1.9-1-3.6-2.9-3.6c-1.2,0-2.3,0.8-2.7,2.2c0,0.2-0.1,0.4-0.1,0.7V24.5z"/>
	<path fill="#F69799" d="M105.2,28.4l-0.1-1.2H105c-0.5,0.8-1.6,1.4-3,1.4c-2,0-3-1.4-3-2.8c0-2.3,2.1-3.6,5.8-3.6v-0.2
		c0-0.8-0.2-2.2-2.2-2.2c-0.9,0-1.8,0.3-2.5,0.7l-0.4-1.2c0.8-0.5,2-0.9,3.2-0.9c3,0,3.7,2,3.7,4v3.6c0,0.8,0,1.7,0.2,2.3H105.2z
		 M104.9,23.5c-1.9,0-4.1,0.3-4.1,2.2c0,1.1,0.8,1.7,1.7,1.7c1.3,0,2.1-0.8,2.3-1.6c0.1-0.2,0.1-0.4,0.1-0.6V23.5z"/>
	<path fill="#F69799" d="M116.4,28.1c-0.5,0.2-1.5,0.6-2.8,0.6c-2.9,0-4.8-2-4.8-4.9c0-3,2-5.1,5.2-5.1c1,0,2,0.3,2.4,0.5l-0.4,1.4
		c-0.4-0.2-1.1-0.5-2-0.5c-2.2,0-3.4,1.6-3.4,3.7c0,2.2,1.4,3.6,3.4,3.6c1,0,1.7-0.3,2.2-0.5L116.4,28.1z"/>
	<path fill="#F69799" d="M120.2,23.2L120.2,23.2c0.3-0.3,0.6-0.8,0.9-1.1l2.8-3.3h2.1l-3.7,4l4.3,5.7h-2.1l-3.3-4.6l-0.9,1v3.6h-1.7
		V14.2h1.7V23.2z"/>
</g>
</svg>
