<?xml version="1.0" encoding="utf-8"?>
<!-- Generator: Adobe Illustrator 18.1.1, SVG Export Plug-In . SVG Version: 6.00 Build 0)  -->
<svg version="1.1" id="Layer_1" xmlns="http://www.w3.org/2000/svg" xmlns:xlink="http://www.w3.org/1999/xlink" x="0px" y="0px"
	 viewBox="0 0 150 43.2" enable-background="new 0 0 150 43.2" xml:space="preserve">
<path fill="#9A3434" d="M32.8,0.6h33.1c0,0,5,0.7,7.4,1.5C75.7,3,90.1,8.5,90.1,8.5l5.3,2.1c0,0,2.1,0.7,3.6,1.2s9.4,1.2,9.4,1.2
	l21.6,1.7c0,0,0.9-0.1,1.3-0.5c0.4-0.4,0.4-0.4,0.4-0.4l14.1,0.9c0,0,3.9-0.3,3.9,6.9s-3.3,7.6-3.3,7.6l-14.3,1c0,0,0-0.6-0.5-0.9
	s-1.6-0.2-1.6-0.2l-30.8,2.8c0,0-22.5,8.8-27.5,10c-5.1,1.2-7.7,1.3-7.7,1.3H4.5c0,0-1.2-0.1-2.5-1.7c-1.3-1.6-1.5-3.8-1.6-6.8
	s0-25.7,0-25.7s0.3-4.7,0.9-5.8s0.9-1.5,1.9-2s4.3-0.7,4.3-0.7H32.8z"/>
<g>
	<path fill="#F6989A" d="M25,16v2.6h2.3v1.2H25v4.9c0,1.1,0.3,1.8,1.2,1.8c0.4,0,0.7-0.1,1-0.1l0.1,1.2c-0.3,0.1-0.8,0.2-1.5,0.2
		c-0.8,0-1.4-0.2-1.8-0.7c-0.5-0.5-0.6-1.3-0.6-2.3v-4.9H22v-1.2h1.4v-2.2L25,16z"/>
	<path fill="#F6989A" d="M34.2,27.7l-0.1-1.1H34c-0.5,0.7-1.5,1.3-2.8,1.3c-1.8,0-2.8-1.3-2.8-2.6c0-2.2,1.9-3.4,5.4-3.4v-0.2
		c0-0.7-0.2-2.1-2.1-2.1c-0.8,0-1.7,0.3-2.3,0.7l-0.4-1.1c0.7-0.5,1.8-0.8,3-0.8c2.8,0,3.4,1.9,3.4,3.7v3.4c0,0.8,0,1.5,0.1,2.2
		H34.2z M33.9,23.1c-1.8,0-3.8,0.3-3.8,2c0,1.1,0.7,1.6,1.5,1.6c1.2,0,1.9-0.7,2.2-1.5c0.1-0.2,0.1-0.4,0.1-0.5V23.1z"/>
	<path fill="#F6989A" d="M38,26c0.5,0.3,1.3,0.7,2.2,0.7c1.2,0,1.8-0.6,1.8-1.3c0-0.8-0.5-1.2-1.7-1.7c-1.6-0.6-2.4-1.5-2.4-2.6
		c0-1.5,1.2-2.6,3.1-2.6c0.9,0,1.7,0.3,2.2,0.6l-0.4,1.2c-0.4-0.2-1-0.5-1.8-0.5c-1,0-1.5,0.6-1.5,1.2c0,0.7,0.5,1.1,1.7,1.5
		c1.6,0.6,2.4,1.4,2.4,2.7c0,1.6-1.2,2.7-3.4,2.7c-1,0-1.9-0.2-2.5-0.6L38,26z"/>
	<path fill="#F6989A" d="M47.5,16v2.6h2.3v1.2h-2.3v4.9c0,1.1,0.3,1.8,1.2,1.8c0.4,0,0.7-0.1,1-0.1l0.1,1.2
		c-0.3,0.1-0.8,0.2-1.5,0.2c-0.8,0-1.4-0.2-1.8-0.7c-0.5-0.5-0.6-1.3-0.6-2.3v-4.9h-1.4v-1.2h1.4v-2.2L47.5,16z"/>
	<path fill="#F6989A" d="M52.5,23.5c0,2.2,1.5,3.1,3.1,3.1c1.2,0,1.9-0.2,2.5-0.5l0.3,1.2c-0.6,0.3-1.6,0.6-3,0.6
		c-2.8,0-4.4-1.8-4.4-4.5c0-2.7,1.6-4.9,4.2-4.9c2.9,0,3.7,2.6,3.7,4.3c0,0.3,0,0.6-0.1,0.8H52.5z M57.4,22.3c0-1-0.4-2.7-2.3-2.7
		c-1.7,0-2.4,1.5-2.5,2.7H57.4z"/>
	<path fill="#F6989A" d="M60.7,26.7c0-0.7,0.5-1.2,1.1-1.2c0.7,0,1.1,0.5,1.1,1.2c0,0.7-0.4,1.2-1.1,1.2
		C61.1,27.9,60.7,27.4,60.7,26.7z M61.1,24l-0.3-9h1.8l-0.3,9H61.1z"/>
</g>
</svg>
