<?xml version="1.0" encoding="utf-8"?>
<!-- Generator: Adobe Illustrator 18.1.1, SVG Export Plug-In . SVG Version: 6.00 Build 0)  -->
<svg version="1.1" id="Layer_1" xmlns="http://www.w3.org/2000/svg" xmlns:xlink="http://www.w3.org/1999/xlink" x="0px" y="0px"
	 viewBox="225 0 150 150" enable-background="new 225 0 150 150" xml:space="preserve">
<rect x="225" fill="#BD4C4C" width="150" height="150"/>
<rect x="225" y="35.9" fill="none" width="112.9" height="86.2"/>
<g enable-background="new    ">
	<path fill="#FFFFFF" d="M273.3,35.8l-3.5,30.1h-9.8c-0.9-4.6-1.7-9.9-2.4-15.8c-0.3,2.5-1,7.8-2.2,15.8h-9.7l-3.5-30.1h7.6
		l0.8,10.5l0.8,10.1c0.3-5.3,1-12.1,2.2-20.6h8.1c0.1,0.9,0.4,4.2,0.9,9.9l0.9,11.4c0.4-7.3,1.2-14.4,2.2-21.4H273.3z"/>
	<path fill="#FFFFFF" d="M282.7,35.8v30.1h-7.8V35.8H282.7z"/>
	<path fill="#FFFFFF" d="M303.3,35.8v30.1h-6.9l-4.1-13.7v13.7h-6.5V35.8h6.5l4.4,13.5V35.8H303.3z"/>
	<path fill="#FFFFFF" d="M306.4,35.8h13v6h-5.2v5.7h4.9v5.7h-4.9v6.6h5.7v6h-13.6V35.8z"/>
</g>
<g enable-background="new    ">
	<path fill="#FFFFFF" d="M262.6,94.6h-7.8v-5.2c0-1.5-0.1-2.5-0.3-2.8c-0.2-0.4-0.5-0.6-1.1-0.6c-0.6,0-1.1,0.2-1.2,0.7
		s-0.3,1.4-0.3,3v14c0,1.5,0.1,2.4,0.3,2.9c0.2,0.4,0.6,0.7,1.2,0.7c0.6,0,1-0.2,1.1-0.7c0.2-0.4,0.3-1.5,0.3-3.1v-3.8h7.8v1.2
		c0,3.1-0.2,5.3-0.7,6.6c-0.4,1.3-1.4,2.4-2.9,3.4c-1.5,1-3.4,1.5-5.6,1.5c-2.3,0-4.2-0.4-5.7-1.2c-1.5-0.8-2.5-2-3-3.4
		c-0.5-1.5-0.7-3.7-0.7-6.6v-8.8c0-2.2,0.1-3.8,0.2-4.9c0.1-1.1,0.6-2.1,1.3-3.1c0.7-1,1.8-1.8,3.1-2.4s2.8-0.9,4.5-0.9
		c2.3,0,4.2,0.4,5.7,1.3s2.5,2,3,3.3c0.5,1.3,0.7,3.4,0.7,6.2V94.6z"/>
	<path fill="#FFFFFF" d="M273.2,81.5v24.1h4.8v6h-12.6V81.5H273.2z"/>
	<path fill="#FFFFFF" d="M297.7,81.5v20.1c0,2.3-0.1,3.9-0.2,4.8s-0.6,1.9-1.3,2.8c-0.7,1-1.7,1.7-2.9,2.2c-1.2,0.5-2.6,0.8-4.2,0.8
		c-1.8,0-3.4-0.3-4.8-0.9c-1.4-0.6-2.4-1.4-3.1-2.3c-0.7-1-1.1-2-1.2-3c-0.1-1.1-0.2-3.3-0.2-6.7V81.5h7.8V104
		c0,1.3,0.1,2.2,0.2,2.5s0.4,0.5,0.9,0.5c0.5,0,0.8-0.2,1-0.6c0.1-0.4,0.2-1.4,0.2-2.9V81.5H297.7z"/>
	<path fill="#FFFFFF" d="M300.7,81.5h7.8c2.5,0,4.3,0.2,5.6,0.6s2.3,1.2,3.1,2.3c0.8,1.2,1.2,3.1,1.2,5.7c0,1.8-0.3,3-0.8,3.7
		s-1.6,1.2-3.3,1.6c1.8,0.4,3,1.1,3.7,2s1,2.4,1,4.4v2.8c0,2-0.2,3.5-0.7,4.5c-0.5,1-1.2,1.6-2.2,2c-1,0.4-3.1,0.5-6.2,0.5h-9V81.5z
		 M308.5,86.6v6.7c0.3,0,0.6,0,0.8,0c0.8,0,1.3-0.2,1.5-0.6c0.2-0.4,0.3-1.5,0.3-3.2c0-0.9-0.1-1.6-0.3-2c-0.2-0.4-0.4-0.6-0.7-0.7
		C309.9,86.7,309.3,86.7,308.5,86.6z M308.5,98v8.4c1.1,0,1.8-0.2,2.1-0.5s0.5-1.1,0.5-2.3v-2.8c0-1.3-0.1-2.1-0.4-2.3
		S309.7,98,308.5,98z"/>
</g>
<path fill="#FFFFFF" d="M331.5,112.7l12.8-6.5l-0.9-21.7l-6.9-6.9c0,0-5.6-7.2-6.1-8.6c-0.6-1.4-2-8.9-1.6-12.6
	c0.4-3.7,4-20.5,4-20.5h25.6c0,0,4,16.5,4,20.6s-0.4,9.7-1.7,12.5c-1.2,2.8-4.6,6.6-4.6,6.6l-8,9.1l-0.9,21.5l12.8,6.6H331.5z"/>
</svg>
