<?xml version="1.0" encoding="utf-8"?>
<!-- Generator: Adobe Illustrator 18.1.1, SVG Export Plug-In . SVG Version: 6.00 Build 0)  -->
<svg version="1.1" id="Layer_1" xmlns="http://www.w3.org/2000/svg" xmlns:xlink="http://www.w3.org/1999/xlink" x="0px" y="0px"
	 viewBox="225 0 150 150" enable-background="new 225 0 150 150" xml:space="preserve">
<rect x="225" fill="#771213" width="150" height="150"/>
<rect x="218.1" y="47.2" fill="none" width="159.8" height="130.4"/>
<g enable-background="new    ">
	<path fill="#FFFFFF" d="M277,51.7c0,2-1.1,3.3-3.4,3.8l0.7,0.3c1.4,0.6,2.4,1.3,2.8,2.3c0.3,0.7,0.5,1.5,0.5,2.2
		c0,1.7-0.6,3.1-1.9,4.1c-1.3,1-3,1.4-5.3,1.4c-0.7,0-1.5,0-2.2-0.1l-1.9-0.1c-0.5,0-1.1-0.1-1.7-0.1c-0.4,0-1.1,0-1.9,0.1
		s-1.4,0.1-1.8,0.1h-0.2c-0.6,0-1.1-0.2-1.4-0.5s-0.5-0.9-0.5-1.5c0-0.5,0.1-0.9,0.4-1.3c0.3-0.3,0.6-0.5,1.1-0.5
		c0.2,0,0.4,0,0.7,0.1c0.3,0.1,0.5,0.1,0.6,0.1c0.5,0,0.7-0.6,0.7-1.9v-7.6c0-1.2-0.2-1.8-0.7-1.8c-0.1,0-0.4,0-0.6,0.1
		c-0.3,0.1-0.5,0.1-0.7,0.1c-0.4,0-0.8-0.2-1.1-0.5c-0.3-0.3-0.4-0.8-0.4-1.3c0-0.6,0.2-1.1,0.5-1.5c0.4-0.4,0.8-0.6,1.4-0.6
		c0,0,0.1,0,0.1,0c0.1,0,0.1,0,0.1,0l1.9,0.2c0.5,0.1,1.3,0.1,2.2,0.1c0.7,0,1.3,0,1.7-0.1l1.9-0.2c0.4,0,1-0.1,1.8-0.1
		c1.2,0,2.3,0.1,3.3,0.4c1,0.3,1.8,0.8,2.4,1.5C276.7,49.9,277,50.8,277,51.7z M267.1,53.6c0,0.4,0.1,0.6,0.2,0.7
		c0.1,0.1,0.3,0.1,0.7,0.1h0.9c1,0,1.7-0.2,2.3-0.5c0.6-0.4,0.8-0.8,0.8-1.4c0-1.2-1-1.9-2.9-1.9c-0.7,0-1.2,0.1-1.4,0.2
		c-0.4,0.2-0.6,0.6-0.6,1.2V53.6z M272.6,60.1c0-0.7-0.3-1.4-1-1.8c-0.7-0.5-1.6-0.7-2.7-0.7H268c-0.4,0-0.7,0.1-0.8,0.2
		c-0.1,0.1-0.2,0.3-0.2,0.7v2c0,0.7,0.2,1.2,0.6,1.4c0.4,0.3,1.1,0.4,2.2,0.4c0.8,0,1.5-0.2,2-0.6C272.3,61.3,272.6,60.8,272.6,60.1
		z"/>
	<path fill="#FFFFFF" d="M292.9,57.6c0,0.8-0.1,1.3-0.3,1.5c-0.2,0.3-0.6,0.4-1.1,0.4h-6.7c-0.3,0-0.5,0-0.6,0.1
		c-0.1,0.1-0.1,0.2-0.1,0.5c0,0.8,0.2,1.4,0.7,1.9c0.5,0.5,1.1,0.8,1.9,0.8c0.8,0,1.6-0.4,2.4-1.3c0.5-0.6,1.2-0.9,1.8-0.9
		c0.5,0,1,0.2,1.3,0.5c0.3,0.3,0.5,0.7,0.5,1.2c0,1.1-0.6,2-1.7,2.7c-1.2,0.7-2.6,1.1-4.2,1.1c-2.2,0-3.9-0.7-5.2-2
		c-1.3-1.3-1.9-3.1-1.9-5.3c0-2.2,0.6-4,1.9-5.4c1.3-1.4,3-2,5.1-2c1.9,0,3.5,0.6,4.6,1.7C292.3,54.3,292.9,55.8,292.9,57.6z
		 M284.2,56.3c0,0.1,0,0.2,0.1,0.3c0.1,0.1,0.2,0.1,0.6,0.1h3.1c0.3,0,0.4,0,0.5-0.1c0.1-0.1,0.1-0.2,0.1-0.3c0-0.5-0.2-0.9-0.6-1.2
		c-0.4-0.4-0.9-0.5-1.5-0.5c-0.7,0-1.3,0.3-1.8,0.9C284.3,55.6,284.2,56,284.2,56.3z"/>
	<path fill="#FFFFFF" d="M301.6,51.5h1c0-0.9,0.3-1.6,0.9-2.1c0.6-0.5,1.4-0.8,2.5-0.8c0.9,0,1.6,0.2,2.2,0.7c0.6,0.4,0.9,1,0.9,1.7
		c0,0.5-0.2,0.8-0.5,1.2c-0.3,0.3-0.7,0.5-1.1,0.5c-0.5,0-0.9-0.2-1.1-0.6l-0.3-0.4c-0.1-0.1-0.2-0.2-0.4-0.2
		c-0.4,0-0.6,0.3-0.6,0.8c0,0.1,0,0.2,0,0.3c1.8,0.6,2.6,1.9,2.6,3.7c0,1.4-0.5,2.5-1.6,3.4c-1.1,0.9-2.5,1.3-4.3,1.3
		c-1,0-1.9-0.2-2.9-0.6l-0.1-0.1c-0.3,0.2-0.4,0.5-0.4,0.7c0,0.6,0.4,1,1.3,1.1c0.3,0.1,1,0.1,2,0.1h0.3h1.8c1.8,0,3.1,0.3,4.1,1
		c1,0.7,1.4,1.7,1.4,3c0,1.6-0.7,2.9-2.1,3.9s-3.4,1.4-5.8,1.4c-2.2,0-4-0.4-5.3-1.2c-1.3-0.8-2-1.9-2-3.2c0-1.5,0.9-2.5,2.8-3
		c-1.5-0.3-2.2-1.1-2.2-2.5c0-0.7,0.2-1.3,0.5-1.7c0.3-0.4,0.9-0.8,1.7-1.2c-0.7-0.7-1-1.5-1-2.4c0-1.3,0.6-2.4,1.7-3.2
		C298.6,51.9,300,51.5,301.6,51.5z M301.3,65.3c-0.4,0-1,0-1.6-0.1c-0.8,0.3-1.2,0.7-1.2,1.3c0,1,1.1,1.5,3.2,1.5
		c2.2,0,3.3-0.5,3.3-1.5c0-0.8-0.7-1.2-2.1-1.2c-0.1,0-0.3,0-0.7,0H301.3z M301.9,54.3c-0.5,0-0.9,0.2-1.3,0.5
		c-0.3,0.3-0.5,0.8-0.5,1.3c0,0.5,0.2,1,0.5,1.3c0.3,0.4,0.8,0.5,1.3,0.5c0.5,0,0.9-0.2,1.3-0.5c0.3-0.4,0.5-0.8,0.5-1.3
		c0-0.5-0.2-1-0.5-1.3C302.8,54.5,302.4,54.3,301.9,54.3z"/>
	<path fill="#FFFFFF" d="M315.8,51.9c0.5,0,0.8,0.4,0.8,1.1v8.3c0,0.9,0.2,1.4,0.5,1.4c0.1,0,0.2,0,0.4-0.1c0.2-0.1,0.4-0.1,0.5-0.1
		c0.8,0,1.2,0.5,1.2,1.4c0,1.3-0.5,1.9-1.6,1.9c-0.2,0-0.7,0-1.5-0.1c-0.5-0.1-1.1-0.1-1.8-0.1c-0.3,0-0.8,0-1.5,0.1
		s-1.1,0.1-1.4,0.1c-0.5,0-0.9-0.2-1.2-0.5c-0.3-0.3-0.5-0.8-0.5-1.3c0-1,0.4-1.6,1.3-1.6l0.7,0.2c0.1,0,0.1,0,0.2,0
		c0.3,0,0.5-0.5,0.5-1.5v-4.4c0-1-0.2-1.6-0.5-1.6c-0.1,0-0.2,0-0.5,0.1c-0.2,0-0.3,0.1-0.4,0.1c-0.9,0-1.3-0.5-1.3-1.5
		c0-0.5,0.2-1,0.5-1.3c0.3-0.3,0.7-0.5,1.2-0.5c0.2,0,0.5,0,0.9,0.1c0.6,0.1,1.2,0.1,1.5,0.1c0.3,0,0.7,0,1.2-0.1
		C315.5,51.9,315.7,51.9,315.8,51.9z M314.2,50.8c-0.7,0-1.3-0.2-1.8-0.7c-0.5-0.5-0.7-1.1-0.7-1.8c0-0.7,0.2-1.3,0.7-1.8
		c0.5-0.5,1.1-0.7,1.8-0.7c0.7,0,1.3,0.2,1.8,0.7s0.7,1.1,0.7,1.8c0,0.7-0.2,1.3-0.7,1.8C315.5,50.6,314.9,50.8,314.2,50.8z"/>
	<path fill="#FFFFFF" d="M325.6,52.6V54c1.4-1.6,3-2.5,4.8-2.5c1.9,0,3.2,0.7,4,2.1c0.4,0.7,0.6,1.9,0.6,3.5v4.1
		c0,0.9,0.2,1.4,0.5,1.4c0.1,0,0.2,0,0.4-0.1c0.1-0.1,0.2-0.1,0.4-0.1c0.8,0,1.2,0.5,1.2,1.4c0,1.3-0.5,1.9-1.6,1.9
		c-0.3,0-0.7,0-1.3-0.1s-1-0.1-1.3-0.1c-0.5,0-0.9,0-1.5,0.1s-0.9,0.1-1.3,0.1c-1.1,0-1.6-0.6-1.6-1.7c0-1,0.4-1.5,1.1-1.5
		c0.5,0,0.7-0.3,0.7-0.7V58c0-1.1-0.1-1.8-0.4-2.2s-0.7-0.6-1.4-0.6c-0.8,0-1.4,0.3-1.9,0.8c-0.5,0.5-0.7,1.2-0.7,1.9v2.9
		c0,0.8,0,1.3,0.1,1.5c0.1,0.2,0.3,0.3,0.6,0.3c0.7,0.1,1,0.6,1,1.5c0,1.2-0.5,1.7-1.5,1.7c-0.3,0-0.6,0-1-0.1
		c-0.7-0.1-1.2-0.1-1.5-0.1s-0.8,0-1.5,0.1c-0.6,0.1-1.1,0.1-1.5,0.1c-1.2,0-1.7-0.6-1.7-1.8c0-1,0.4-1.5,1.3-1.5
		c0.1,0,0.3,0,0.5,0.1s0.3,0.1,0.4,0.1c0.3,0,0.5-0.5,0.5-1.5v-4.4c0-1-0.2-1.6-0.5-1.6c-0.1,0-0.2,0-0.4,0.1s-0.4,0.1-0.5,0.1
		c-0.9,0-1.3-0.5-1.3-1.5c0-0.5,0.2-1,0.5-1.3c0.3-0.3,0.7-0.5,1.2-0.5c0.1,0,0.5,0,0.9,0.1c0.3,0.1,0.5,0.1,0.7,0.1
		c0.2,0,0.6,0,1.1-0.1c0.5-0.1,0.8-0.1,0.9-0.1C325.4,51.9,325.6,52.1,325.6,52.6z"/>
</g>
<g enable-background="new    ">
	<path fill="#FFFFFF" d="M249.2,95.1c0.6,0,0.9-0.6,0.9-1.7v-7.9c0-1.2-0.4-1.8-1.3-1.8c-0.9,0-1.3,0.3-1.3,0.9c0,0.2,0,0.5,0.1,0.8
		s0.1,0.7,0.1,0.8c0,1.6-0.7,2.4-2.1,2.4c-0.6,0-1.1-0.2-1.5-0.6c-0.4-0.4-0.5-1-0.5-1.7c0-0.2,0-0.7,0.1-1.3
		c0.1-0.5,0.1-0.9,0.1-1.3c0-0.2,0-0.7-0.1-1.3c-0.1-0.5-0.1-0.8-0.1-1.1c0-0.8,0.4-1.2,1.2-1.2c0.4,0,1,0,1.6,0.1
		c1.5,0.1,3.5,0.2,6.2,0.2c2.7,0,4.7-0.1,6.2-0.2c0.6-0.1,1.2-0.1,1.6-0.1c0.8,0,1.2,0.4,1.2,1.2c0,0.3,0,0.7-0.1,1.2
		s-0.1,0.9-0.1,1.2c0,0.3,0,0.7,0.1,1.3c0.1,0.8,0.1,1.2,0.1,1.3c0,0.7-0.2,1.2-0.6,1.6s-0.9,0.6-1.5,0.6c-1.4,0-2.1-0.8-2.1-2.4
		c0-0.2,0-0.5,0.1-0.9c0.1-0.4,0.1-0.6,0.1-0.8c0-0.7-0.4-1-1.2-1c-0.5,0-0.9,0.1-1.1,0.4s-0.3,0.8-0.3,1.4v7.9
		c0,1.1,0.3,1.7,0.9,1.7c0.2,0,0.5,0,0.9-0.1c0.4-0.1,0.7-0.1,0.9-0.1c1.1,0,1.6,0.5,1.6,1.6c0,1.4-0.7,2.2-2.1,2.2
		c-0.5,0-1.2,0-1.9-0.1c-1.1-0.1-2-0.2-2.8-0.2c-0.8,0-1.7,0.1-2.8,0.2c-0.7,0.1-1.3,0.1-1.9,0.1c-1.4,0-2.1-0.7-2.1-2
		c0-1.2,0.6-1.8,1.7-1.8c0.2,0,0.5,0,0.9,0.1C248.7,95.1,249,95.1,249.2,95.1z"/>
	<path fill="#FFFFFF" d="M274.7,99.1c-1.5,0-2.5-0.6-3-1.8c-1.3,1.2-2.8,1.8-4.6,1.8c-1.4,0-2.6-0.4-3.5-1.1c-0.9-0.8-1.3-1.8-1.3-3
		c0-1.9,0.8-3.2,2.5-3.7c0.7-0.2,1.5-0.4,2.5-0.6c1.3-0.2,2.2-0.5,2.6-0.8c0.5-0.3,0.7-0.7,0.7-1.3c0-0.4-0.2-0.8-0.5-1.1
		s-0.8-0.4-1.3-0.4c-0.6,0-0.9,0.2-0.9,0.6c0,0.1,0,0.3,0,0.4v0.1c0,0.5-0.2,0.9-0.6,1.3c-0.4,0.3-1,0.5-1.6,0.5
		c-0.7,0-1.3-0.2-1.8-0.7c-0.5-0.4-0.7-1-0.7-1.6c0-1,0.5-1.8,1.6-2.3c1-0.6,2.5-0.8,4.3-0.8c2,0,3.4,0.3,4.4,0.9
		c1,0.7,1.6,1.9,1.6,3.7v5.7c0,0.6,0.1,0.9,0.4,0.9c0.1,0,0.3,0,0.4,0c0.1,0,0.1,0,0.2,0c0.4,0,0.8,0.1,1.1,0.4
		c0.3,0.3,0.4,0.6,0.4,1.1c0,0.6-0.3,1.1-0.8,1.5C276.2,98.9,275.5,99.1,274.7,99.1z M270.7,93.2v-0.6c-0.1,0.1-0.9,0.3-2.4,0.7
		c-1,0.3-1.5,0.6-1.5,1.2c0,0.8,0.5,1.3,1.5,1.3C269.9,95.7,270.7,94.9,270.7,93.2z"/>
	<path fill="#FFFFFF" d="M283.8,84.4c1.4,0,2.6,0.4,3.6,1.2c0.1-0.8,0.6-1.2,1.5-1.2c0.9,0,1.4,0.3,1.4,1c0,0.2,0,0.5-0.1,0.7
		c-0.1,0.3-0.1,0.6-0.1,0.9c0,0.1,0,0.2,0,0.4c0,0.2,0,0.4,0,0.6v0.1c0,1-0.5,1.5-1.5,1.5c-0.7,0-1.3-0.3-1.8-1
		c-0.6-0.8-1.4-1.2-2.3-1.2c-1.1,0-1.6,0.4-1.6,1.1c0,0.4,0.2,0.7,0.5,0.8s1.3,0.4,2.7,0.6c1.2,0.2,2.1,0.5,2.7,0.7
		c0.6,0.3,1,0.7,1.4,1.2c0.5,0.7,0.7,1.4,0.7,2.3c0,1.4-0.5,2.6-1.6,3.5c-1.1,0.9-2.4,1.4-4,1.4c-1.6,0-3.1-0.5-4.4-1.5
		c0,0.9-0.5,1.3-1.4,1.3c-1,0-1.5-0.4-1.5-1.2c0-0.2,0-0.5,0.1-0.8c0-0.4,0.1-0.7,0.1-0.9c0-0.2,0-0.4,0-0.7c0-0.3,0-0.6,0-0.7
		c0-0.8,0.5-1.2,1.5-1.2c0.5,0,0.9,0.1,1.1,0.2c0.3,0.1,0.5,0.4,0.8,0.9c0.5,0.7,0.9,1.1,1.3,1.3c0.4,0.2,1,0.3,1.7,0.3
		c1.3,0,2-0.4,2-1.2c0-0.6-0.5-1-1.6-1.2l-1.6-0.3c-1.3-0.3-2.2-0.5-2.8-0.8c-0.5-0.3-1-0.7-1.3-1.3c-0.3-0.6-0.5-1.3-0.5-2
		c0-1.4,0.5-2.5,1.4-3.3C281.2,84.8,282.4,84.4,283.8,84.4z"/>
	<path fill="#FFFFFF" d="M298.2,88.6v1.1v1.7l-0.1,1.8c0,0.6,0,0.9,0,0.7c0,1.1,0.3,1.6,1,1.6c0.6,0,1-0.5,1-1.5c0-0.1,0-0.3,0-0.3
		c0-0.1,0-0.2,0-0.4c0-0.1,0-0.2,0-0.3c0-1,0.5-1.5,1.5-1.5c1.2,0,1.7,0.9,1.7,2.8c0,1.4-0.4,2.6-1.3,3.4s-2.1,1.2-3.6,1.2
		c-3,0-4.5-1.6-4.5-4.8c0-0.5,0-1.3,0.1-2.3c0-1,0.1-1.8,0.1-2.3v-0.9c0-0.5,0-0.7-0.1-0.9c-0.1-0.1-0.3-0.2-0.6-0.2h-0.4
		c-0.3,0-0.6-0.1-0.9-0.4c-0.2-0.3-0.3-0.6-0.3-1c0-0.4,0.1-0.8,0.3-1.1s0.5-0.5,0.8-0.5h0.5c0.4,0,0.7-0.1,0.8-0.4
		c0.1-0.1,0.1-0.4,0.1-0.7v-1.3c0-0.6,0.2-1.1,0.5-1.3c0.3-0.2,1-0.4,1.9-0.4c0.6,0,1.1,0.1,1.3,0.3s0.3,0.6,0.3,1.2v1.5
		c0,0.5,0.1,0.9,0.2,1c0.1,0.1,0.4,0.2,0.8,0.2h2c1.1,0,1.6,0.5,1.6,1.5c0,1-0.5,1.5-1.5,1.5H299c-0.4,0-0.6,0.1-0.7,0.2
		C298.2,88.1,298.2,88.3,298.2,88.6z"/>
	<path fill="#FFFFFF" d="M310.2,84.8c0.5,0,0.8,0.4,0.8,1.1v8.3c0,0.9,0.2,1.4,0.5,1.4c0.1,0,0.2,0,0.4-0.1c0.2-0.1,0.4-0.1,0.5-0.1
		c0.8,0,1.2,0.5,1.2,1.4c0,1.3-0.5,1.9-1.6,1.9c-0.2,0-0.7,0-1.5-0.1c-0.5-0.1-1.1-0.1-1.8-0.1c-0.3,0-0.8,0-1.5,0.1
		s-1.1,0.1-1.4,0.1c-0.5,0-0.9-0.2-1.2-0.5c-0.3-0.3-0.5-0.8-0.5-1.3c0-1,0.4-1.6,1.3-1.6l0.7,0.2c0.1,0,0.1,0,0.2,0
		c0.3,0,0.5-0.5,0.5-1.5v-4.4c0-1-0.2-1.6-0.5-1.6c-0.1,0-0.2,0-0.5,0.1c-0.2,0-0.3,0.1-0.4,0.1c-0.9,0-1.3-0.5-1.3-1.5
		c0-0.5,0.2-1,0.5-1.3c0.3-0.3,0.7-0.5,1.2-0.5c0.2,0,0.5,0,0.9,0.1c0.6,0.1,1.2,0.1,1.5,0.1c0.3,0,0.7,0,1.2-0.1
		C309.8,84.8,310.1,84.8,310.2,84.8z M308.6,83.8c-0.7,0-1.3-0.2-1.8-0.7c-0.5-0.5-0.7-1.1-0.7-1.8c0-0.7,0.2-1.3,0.7-1.8
		c0.5-0.5,1.1-0.7,1.8-0.7c0.7,0,1.3,0.2,1.8,0.7c0.5,0.5,0.7,1.1,0.7,1.8c0,0.7-0.2,1.3-0.7,1.8S309.3,83.8,308.6,83.8z"/>
	<path fill="#FFFFFF" d="M320,85.6v1.3c1.4-1.6,3-2.5,4.8-2.5c1.9,0,3.2,0.7,4,2.1c0.4,0.7,0.6,1.9,0.6,3.5v4.1
		c0,0.9,0.2,1.4,0.5,1.4c0.1,0,0.2,0,0.4-0.1c0.1-0.1,0.2-0.1,0.4-0.1c0.8,0,1.2,0.5,1.2,1.4c0,1.3-0.5,1.9-1.6,1.9
		c-0.3,0-0.7,0-1.3-0.1s-1-0.1-1.3-0.1c-0.5,0-0.9,0-1.5,0.1s-0.9,0.1-1.3,0.1c-1.1,0-1.6-0.6-1.6-1.7c0-1,0.4-1.5,1.1-1.5
		c0.5,0,0.7-0.3,0.7-0.7V91c0-1.1-0.1-1.8-0.4-2.2c-0.3-0.4-0.7-0.6-1.4-0.6c-0.8,0-1.4,0.3-1.9,0.8s-0.7,1.2-0.7,1.9v2.9
		c0,0.8,0,1.3,0.1,1.5c0.1,0.2,0.3,0.3,0.6,0.3c0.7,0.1,1,0.6,1,1.5c0,1.2-0.5,1.7-1.5,1.7c-0.3,0-0.6,0-1-0.1
		c-0.7-0.1-1.2-0.1-1.5-0.1s-0.8,0-1.5,0.1c-0.6,0.1-1.1,0.1-1.5,0.1c-1.2,0-1.7-0.6-1.7-1.8c0-1,0.4-1.5,1.3-1.5
		c0.1,0,0.3,0,0.5,0.1s0.3,0.1,0.4,0.1c0.3,0,0.5-0.5,0.5-1.5v-4.4c0-1-0.2-1.6-0.5-1.6c-0.1,0-0.2,0-0.4,0.1
		c-0.2,0.1-0.4,0.1-0.5,0.1c-0.9,0-1.3-0.5-1.3-1.5c0-0.5,0.2-1,0.5-1.3c0.3-0.3,0.7-0.5,1.2-0.5c0.1,0,0.5,0,0.9,0.1
		c0.3,0.1,0.5,0.1,0.7,0.1c0.2,0,0.6,0,1.1-0.1c0.5-0.1,0.8-0.1,0.9-0.1C319.7,84.8,320,85.1,320,85.6z"/>
	<path fill="#FFFFFF" d="M340,84.4h1c0-0.9,0.3-1.6,0.9-2.1s1.4-0.8,2.5-0.8c0.9,0,1.6,0.2,2.2,0.7c0.6,0.4,0.9,1,0.9,1.7
		c0,0.5-0.2,0.8-0.5,1.2c-0.3,0.3-0.7,0.5-1.1,0.5c-0.5,0-0.9-0.2-1.1-0.6l-0.3-0.4c-0.1-0.1-0.2-0.2-0.4-0.2
		c-0.4,0-0.6,0.3-0.6,0.8c0,0.1,0,0.2,0,0.3c1.8,0.6,2.6,1.9,2.6,3.7c0,1.4-0.5,2.5-1.6,3.4s-2.5,1.3-4.3,1.3c-1,0-1.9-0.2-2.9-0.6
		l-0.1-0.1c-0.3,0.2-0.4,0.5-0.4,0.7c0,0.6,0.4,1,1.3,1.1c0.3,0.1,1,0.1,2,0.1h0.3h1.8c1.8,0,3.1,0.3,4.1,1c1,0.7,1.4,1.7,1.4,3
		c0,1.6-0.7,2.9-2.1,3.9s-3.4,1.4-5.8,1.4c-2.2,0-4-0.4-5.3-1.2c-1.3-0.8-2-1.9-2-3.2c0-1.5,0.9-2.5,2.8-3c-1.5-0.3-2.2-1.1-2.2-2.5
		c0-0.7,0.2-1.3,0.5-1.7c0.3-0.4,0.9-0.8,1.7-1.2c-0.7-0.7-1-1.5-1-2.4c0-1.3,0.6-2.4,1.7-3.2S338.3,84.4,340,84.4z M339.6,98.2
		c-0.4,0-1,0-1.6-0.1c-0.8,0.3-1.2,0.7-1.2,1.3c0,1,1.1,1.5,3.2,1.5c2.2,0,3.3-0.5,3.3-1.5c0-0.8-0.7-1.2-2.1-1.2
		c-0.1,0-0.3,0-0.7,0H339.6z M340.2,87.2c-0.5,0-0.9,0.2-1.3,0.5c-0.3,0.3-0.5,0.8-0.5,1.3s0.2,1,0.5,1.3c0.3,0.4,0.8,0.5,1.3,0.5
		c0.5,0,0.9-0.2,1.3-0.5c0.3-0.4,0.5-0.8,0.5-1.3c0-0.5-0.2-1-0.5-1.3C341.1,87.4,340.7,87.2,340.2,87.2z"/>
	<path fill="#FFFFFF" d="M355.3,91.6c-0.1,0.9-0.5,1.4-1.3,1.4H353c-0.8,0-1.2-0.5-1.3-1.4l-0.8-8.8c-0.1-0.6-0.1-0.9-0.1-1.1
		c0-1.2,0.9-1.9,2.7-1.9s2.7,0.6,2.7,1.9c0,0.3,0,0.7-0.1,1.1L355.3,91.6z M353.4,99.1c-0.7,0-1.3-0.3-1.8-0.8s-0.8-1.1-0.8-1.8
		s0.3-1.3,0.8-1.8c0.5-0.5,1.1-0.8,1.8-0.8c0.7,0,1.3,0.3,1.8,0.8c0.5,0.5,0.8,1.1,0.8,1.8s-0.3,1.3-0.8,1.8
		C354.8,98.8,354.2,99.1,353.4,99.1z"/>
</g>
<circle fill="#FFFFFF" cx="242.7" cy="132.7" r="9.3"/>
<circle fill="#FFFFFF" cx="356.4" cy="132.9" r="9.3"/>
<circle fill="#FFFFFF" cx="356.4" cy="17.2" r="9.3"/>
<circle fill="#FFFFFF" cx="243.6" cy="17.2" r="9.3"/>
</svg>
