<?xml version="1.0" encoding="utf-8"?>
<!-- Generator: Adobe Illustrator 18.1.1, SVG Export Plug-In . SVG Version: 6.00 Build 0)  -->
<svg version="1.1" id="Capa_1" xmlns="http://www.w3.org/2000/svg" xmlns:xlink="http://www.w3.org/1999/xlink" x="0px" y="0px"
	 viewBox="0 0 100 100" enable-background="new 0 0 100 100" xml:space="preserve">
<g>
	<path fill="#FFFFFF" d="M13.6,92.1c0,0-0.1,2.2,2.1,2.2c2.7,0,25.2,0,25.2,0l0-20.7c0,0-0.4-3.4,2.9-3.4h10.5
		c3.9,0,3.7,3.4,3.7,3.4l0,20.6c0,0,21.3,0,24.7,0c2.8,0,2.6-2.8,2.6-2.8V53.3L50.5,22.4L13.6,53.3C13.6,53.3,13.6,92.1,13.6,92.1z"
		/>
	<path fill="#FFFFFF" d="M0,50.5c0,0,3.1,5.8,10,0l40.9-34.6l38.3,34.3c7.9,5.7,10.9,0,10.9,0L50.8,5.7L0,50.5z"/>
	<polygon fill="#FFFFFF" points="88.2,15.8 78.3,15.8 78.4,27.8 88.2,36.1 	"/>
</g>
</svg>
