<?xml version="1.0" encoding="utf-8"?>
<!-- Generator: Adobe Illustrator 18.1.1, SVG Export Plug-In . SVG Version: 6.00 Build 0)  -->
<svg version="1.1" id="Layer_1" xmlns="http://www.w3.org/2000/svg" xmlns:xlink="http://www.w3.org/1999/xlink" x="0px" y="0px"
	 viewBox="0 13.8 100 72.4" enable-background="new 0 13.8 100 72.4" xml:space="preserve">
<path fill="#FFFFFF" d="M91.9,30H8.4c-4.5,0-8.1-3.7-8.1-8.1v0c0-4.5,3.7-8.1,8.1-8.1h83.5c4.5,0,8.1,3.7,8.1,8.1v0
	C100,26.3,96.3,30,91.9,30z"/>
<path fill="#FFFFFF" d="M91.9,59H8.4c-4.5,0-8.1-3.7-8.1-8.1v0c0-4.5,3.7-8.1,8.1-8.1h83.5c4.5,0,8.1,3.7,8.1,8.1v0
	C100,55.3,96.3,59,91.9,59z"/>
<path fill="#FFFFFF" d="M91.9,86.1H8.4c-4.5,0-8.1-3.7-8.1-8.1v0c0-4.5,3.7-8.1,8.1-8.1h83.5c4.5,0,8.1,3.7,8.1,8.1v0
	C100,82.5,96.3,86.1,91.9,86.1z"/>
</svg>
