<?xml version="1.0" encoding="utf-8"?>
<!-- Generator: Adobe Illustrator 18.1.1, SVG Export Plug-In . SVG Version: 6.00 Build 0)  -->
<svg version="1.1" id="Layer_1" xmlns="http://www.w3.org/2000/svg" xmlns:xlink="http://www.w3.org/1999/xlink" x="0px" y="0px"
	 viewBox="0 0 600 134" enable-background="new 0 0 600 134" xml:space="preserve">
<path fill="#FFFFFF" d="M577.2,140.4H4.9c-16.5,0-30-13.5-30-30V31.9c0-16.5,13.5-30,30-30h572.2c16.5,0,30,13.5,30,30v78.6
	C607.2,126.9,593.7,140.4,577.2,140.4z"/>
<g>
	<path fill="#666766" d="M9,124.5v-1.2l1.5-1.5c3.7-3.5,5.4-5.4,5.4-7.6c0-1.5-0.7-2.8-2.9-2.8c-1.3,0-2.4,0.7-3.1,1.2l-0.6-1.4
		c1-0.8,2.4-1.5,4.1-1.5c3.1,0,4.4,2.1,4.4,4.2c0,2.7-1.9,4.8-5,7.8l-1.2,1.1v0h6.5v1.6H9z"/>
	<path fill="#666766" d="M30.1,117.1c0,4.9-1.8,7.7-5,7.7c-2.8,0-4.8-2.7-4.8-7.5c0-4.9,2.1-7.5,5-7.5
		C28.3,109.7,30.1,112.5,30.1,117.1z M22.2,117.3c0,3.8,1.2,5.9,2.9,5.9c2,0,3-2.3,3-6c0-3.6-0.9-5.9-2.9-5.9
		C23.4,111.3,22.2,113.4,22.2,117.3z"/>
	<path fill="#666766" d="M36.1,111.8L36.1,111.8l-2.6,1.4l-0.4-1.5l3.2-1.7H38v14.5h-1.9V111.8z"/>
	<path fill="#666766" d="M53,117.1c0,4.9-1.8,7.7-5,7.7c-2.8,0-4.8-2.7-4.8-7.5c0-4.9,2.1-7.5,5-7.5C51.2,109.7,53,112.5,53,117.1z
		 M45.1,117.3c0,3.8,1.2,5.9,2.9,5.9c2,0,3-2.3,3-6c0-3.6-0.9-5.9-2.9-5.9C46.3,111.3,45.1,113.4,45.1,117.3z"/>
</g>
<g>
	<path fill="#666766" d="M136.7,124.5v-1.2l1.5-1.5c3.7-3.5,5.4-5.4,5.4-7.6c0-1.5-0.7-2.8-2.9-2.8c-1.3,0-2.4,0.7-3.1,1.2l-0.6-1.4
		c1-0.8,2.4-1.5,4.1-1.5c3.1,0,4.4,2.1,4.4,4.2c0,2.7-1.9,4.8-5,7.8l-1.2,1.1v0h6.5v1.6H136.7z"/>
	<path fill="#666766" d="M157.8,117.1c0,4.9-1.8,7.7-5,7.7c-2.8,0-4.8-2.7-4.8-7.5c0-4.9,2.1-7.5,5-7.5
		C156,109.7,157.8,112.5,157.8,117.1z M149.9,117.3c0,3.8,1.2,5.9,2.9,5.9c2,0,3-2.3,3-6c0-3.6-0.9-5.9-2.9-5.9
		C151.1,111.3,149.9,113.4,149.9,117.3z"/>
	<path fill="#666766" d="M163.8,111.8L163.8,111.8l-2.6,1.4l-0.4-1.5l3.2-1.7h1.7v14.5h-1.9V111.8z"/>
	<path fill="#666766" d="M175.3,111.8L175.3,111.8l-2.6,1.4l-0.4-1.5l3.2-1.7h1.7v14.5h-1.9V111.8z"/>
</g>
<g>
	<path fill="#666766" d="M279.4,124.5v-1.2l1.5-1.5c3.7-3.5,5.4-5.4,5.4-7.6c0-1.5-0.7-2.8-2.9-2.8c-1.3,0-2.4,0.7-3.1,1.2l-0.6-1.4
		c1-0.8,2.4-1.5,4.1-1.5c3.1,0,4.4,2.1,4.4,4.2c0,2.7-1.9,4.8-5,7.8l-1.2,1.1v0h6.5v1.6H279.4z"/>
	<path fill="#666766" d="M300.5,117.1c0,4.9-1.8,7.7-5,7.7c-2.8,0-4.8-2.7-4.8-7.5c0-4.9,2.1-7.5,5-7.5
		C298.8,109.7,300.5,112.5,300.5,117.1z M292.6,117.3c0,3.8,1.2,5.9,2.9,5.9c2,0,3-2.3,3-6c0-3.6-0.9-5.9-2.9-5.9
		C293.9,111.3,292.6,113.4,292.6,117.3z"/>
	<path fill="#666766" d="M306.6,111.8L306.6,111.8l-2.6,1.4l-0.4-1.5l3.2-1.7h1.7v14.5h-1.9V111.8z"/>
	<path fill="#666766" d="M313.8,124.5v-1.2l1.5-1.5c3.7-3.5,5.4-5.4,5.4-7.6c0-1.5-0.7-2.8-2.9-2.8c-1.3,0-2.4,0.7-3.1,1.2l-0.6-1.4
		c1-0.8,2.4-1.5,4.1-1.5c3.1,0,4.4,2.1,4.4,4.2c0,2.7-1.9,4.8-5,7.8l-1.2,1.1v0h6.5v1.6H313.8z"/>
</g>
<g>
	<path fill="#666766" d="M416.4,124.5v-1.2l1.5-1.5c3.7-3.5,5.4-5.4,5.4-7.6c0-1.5-0.7-2.8-2.9-2.8c-1.3,0-2.4,0.7-3.1,1.2l-0.6-1.4
		c1-0.8,2.4-1.5,4.1-1.5c3.1,0,4.4,2.1,4.4,4.2c0,2.7-1.9,4.8-5,7.8l-1.2,1.1v0h6.5v1.6H416.4z"/>
	<path fill="#666766" d="M437.5,117.1c0,4.9-1.8,7.7-5,7.7c-2.8,0-4.8-2.7-4.8-7.5c0-4.9,2.1-7.5,5-7.5
		C435.7,109.7,437.5,112.5,437.5,117.1z M429.6,117.3c0,3.8,1.2,5.9,2.9,5.9c2,0,3-2.3,3-6c0-3.6-0.9-5.9-2.9-5.9
		C430.8,111.3,429.6,113.4,429.6,117.3z"/>
	<path fill="#666766" d="M443.5,111.8L443.5,111.8l-2.6,1.4l-0.4-1.5l3.2-1.7h1.7v14.5h-1.9V111.8z"/>
	<path fill="#666766" d="M451.2,122.2c0.6,0.4,1.9,0.9,3.2,0.9c2.5,0,3.3-1.6,3.3-2.8c0-2-1.9-2.9-3.8-2.9h-1.1V116h1.1
		c1.4,0,3.2-0.7,3.2-2.5c0-1.2-0.7-2.2-2.5-2.2c-1.2,0-2.3,0.5-2.9,1l-0.5-1.4c0.8-0.6,2.2-1.1,3.8-1.1c2.9,0,4.2,1.7,4.2,3.5
		c0,1.5-0.9,2.8-2.7,3.4v0c1.8,0.4,3.2,1.7,3.2,3.7c0,2.3-1.8,4.4-5.3,4.4c-1.6,0-3.1-0.5-3.8-1L451.2,122.2z"/>
</g>
<g>
	<path fill="#666766" d="M535.6,124.5v-1.2l1.5-1.5c3.7-3.5,5.4-5.4,5.4-7.6c0-1.5-0.7-2.8-2.9-2.8c-1.3,0-2.4,0.7-3.1,1.2l-0.6-1.4
		c1-0.8,2.4-1.5,4.1-1.5c3.1,0,4.4,2.1,4.4,4.2c0,2.7-1.9,4.8-5,7.8l-1.2,1.1v0h6.5v1.6H535.6z"/>
	<path fill="#666766" d="M556.7,117.1c0,4.9-1.8,7.7-5,7.7c-2.8,0-4.8-2.7-4.8-7.5c0-4.9,2.1-7.5,5-7.5
		C555,109.7,556.7,112.5,556.7,117.1z M548.8,117.3c0,3.8,1.2,5.9,2.9,5.9c2,0,3-2.3,3-6c0-3.6-0.9-5.9-2.9-5.9
		C550.1,111.3,548.8,113.4,548.8,117.3z"/>
	<path fill="#666766" d="M562.8,111.8L562.8,111.8l-2.6,1.4l-0.4-1.5l3.2-1.7h1.7v14.5h-1.9V111.8z"/>
	<path fill="#666766" d="M576,124.5v-4h-6.7v-1.3l6.5-9.3h2.1v9h2v1.5h-2v4H576z M576,119v-4.8c0-0.8,0-1.5,0.1-2.3H576
		c-0.4,0.8-0.8,1.5-1.2,2.1l-3.5,4.9v0H576z"/>
</g>
<polyline fill="none" stroke="#666766" stroke-width="2" stroke-miterlimit="10" points="32,32.7 159.7,71.2 300,62 436,23.2 
	553,47.2 "/>
<circle fill="#666766" cx="300" cy="62" r="9"/>
<line fill="none" stroke="#666766" stroke-width="2" stroke-miterlimit="10" x1="5.1" y1="15.3" x2="5.1" y2="97.8"/>
<line fill="none" stroke="#666766" stroke-width="2" stroke-miterlimit="10" x1="593.8" y1="96.3" x2="6" y2="96.3"/>
</svg>
