<?xml version="1.0" encoding="utf-8"?>
<!-- Generator: Adobe Illustrator 18.1.1, SVG Export Plug-In . SVG Version: 6.00 Build 0)  -->
<svg version="1.1" id="Layer_1" xmlns="http://www.w3.org/2000/svg" xmlns:xlink="http://www.w3.org/1999/xlink" x="0px" y="0px"
	 viewBox="0 0 100 100" enable-background="new 0 0 100 100" xml:space="preserve">
<rect fill="#CC3333" width="100" height="100"/>
<g id="Settings">
	<g>
		<path fill="#FFFFFF" d="M88.6,45.7c-0.1-1.1-1.4-1.9-2.5-1.9c-3.6,0-6.7-2.1-8.1-5.3c-1.4-3.3-0.5-7.2,2.2-9.6
			c0.8-0.8,0.9-2,0.2-2.9c-1.8-2.3-3.9-4.4-6.2-6.2c-0.9-0.7-2.2-0.6-3,0.2c-2.3,2.6-6.5,3.5-9.7,2.2c-3.3-1.4-5.5-4.8-5.3-8.4
			c0.1-1.1-0.8-2.1-1.9-2.3c-2.9-0.3-5.8-0.3-8.7,0c-1.1,0.1-2,1.1-1.9,2.2c0.1,3.6-2,6.9-5.3,8.3c-3.2,1.3-7.3,0.4-9.6-2.2
			c-0.8-0.8-2-0.9-2.9-0.2c-2.3,1.8-4.5,3.9-6.3,6.2c-0.7,0.9-0.6,2.2,0.2,3c2.7,2.5,3.6,6.4,2.2,9.7c-1.3,3.2-4.7,5.3-8.5,5.3
			c-1.2,0-2.1,0.8-2.2,1.9c-0.3,2.9-0.3,5.9,0,8.8c0.1,1.1,1.4,1.9,2.6,1.9c3.4-0.1,6.6,2,8,5.3c1.4,3.3,0.5,7.2-2.2,9.6
			c-0.8,0.8-0.9,2-0.2,2.9c1.8,2.3,3.9,4.4,6.2,6.2c0.9,0.7,2.2,0.6,3-0.2c2.3-2.6,6.5-3.5,9.7-2.2c3.4,1.4,5.5,4.8,5.3,8.4
			c-0.1,1.1,0.8,2.1,1.9,2.3c1.5,0.2,3,0.3,4.5,0.3c1.4,0,2.8-0.1,4.3-0.2c1.1-0.1,2-1.1,1.9-2.2c-0.1-3.6,2-6.9,5.3-8.3
			c3.2-1.3,7.3-0.4,9.6,2.2c0.8,0.8,2,0.9,2.9,0.2c2.3-1.8,4.4-3.9,6.3-6.2c0.7-0.9,0.6-2.2-0.2-3c-2.7-2.5-3.6-6.4-2.2-9.7
			c1.3-3.2,4.5-5.3,8-5.3l0.5,0c1.1,0.1,2.1-0.8,2.3-1.9C89,51.6,89,48.6,88.6,45.7z M50.1,63.1c-7.2,0-13-5.8-13-13
			c0-7.2,5.8-13,13-13c7.2,0,13,5.8,13,13C63,57.2,57.2,63.1,50.1,63.1z"/>
	</g>
</g>
</svg>
